<?xml version="1.0" encoding="UTF-8"?> <svg xmlns="http://www.w3.org/2000/svg" width="139" height="81" viewBox="0 0 139 81" fill="none"><g clip-path="url(#clip0_17_3047)"><path d="M45.2896 61.8456V65.5321H44.7962L42.7726 63.019V65.5321H42.1543V61.8456H42.6477L44.6713 64.3681V61.8456H45.2896Z" fill="#333276"></path><path d="M49.5703 65.5323H46.791V61.8458H49.5172V62.4451H47.4249V63.3706H49.3798V63.9511H47.4249V64.93H49.5703V65.5292V65.5323Z" fill="#333276"></path><path d="M51.064 65.5323H50.4082L52.0196 61.8458H52.5005L54.1119 65.5323H53.4467L53.0907 64.7166H51.4169L51.064 65.5323ZM52.8534 64.1707L52.2507 62.7682L51.648 64.1707H52.8534Z" fill="#333276"></path><path d="M55.6671 64.1801V65.5323H55.0332V61.8458H56.476C57.4409 61.8458 57.9249 62.2286 57.9249 62.9941C57.9249 63.2483 57.85 63.471 57.7032 63.6656C57.5533 63.8601 57.3597 63.9919 57.1193 64.0577L58.2216 65.5323H57.4503L56.4478 64.1801H55.6703H55.6671ZM56.4572 62.4451H55.664V63.5777H56.4884C56.6977 63.5777 56.8788 63.5275 57.0318 63.4334C57.1848 63.3361 57.2598 63.1887 57.2598 62.9941C57.2598 62.6271 56.9912 62.4451 56.4572 62.4451Z" fill="#333276"></path><path d="M62.041 65.5323H59.2617V61.8458H61.9879V62.4451H59.8957V63.3706H61.8505V63.9511H59.8957V64.93H62.041V65.5292V65.5323Z" fill="#333276"></path><path d="M65.339 64.5315C65.339 64.3903 65.2765 64.2773 65.1485 64.1958C65.0204 64.1142 64.7987 64.0326 64.4833 63.9542C64.1648 63.8726 63.9462 63.8099 63.8275 63.7628C63.3248 63.5777 63.0718 63.2702 63.0718 62.8467C63.0718 62.6113 63.1561 62.4105 63.3216 62.2474C63.4871 62.0843 63.6932 61.9619 63.9368 61.8803C64.1148 61.827 64.3053 61.8019 64.5083 61.8019C65.1048 61.8019 65.5794 61.9776 65.9292 62.329L65.5826 62.7808C65.2796 62.5235 64.9143 62.3949 64.4927 62.3949C64.4146 62.3949 64.3397 62.4011 64.2585 62.4137C64.1773 62.4262 64.0992 62.4451 64.0118 62.4733C63.9275 62.5015 63.8556 62.5455 63.8057 62.6082C63.7526 62.671 63.7276 62.7431 63.7276 62.8278C63.7276 62.969 63.815 63.082 63.9899 63.1635C64.0774 63.2137 64.2803 63.2765 64.5989 63.3581C64.9174 63.4396 65.1329 63.5024 65.2484 63.5463C65.4857 63.6404 65.67 63.7628 65.798 63.9071C65.9261 64.0514 65.9916 64.2428 65.9916 64.4781C65.9916 64.7134 65.9167 64.9111 65.7699 65.0837C65.62 65.2562 65.442 65.3786 65.2328 65.4539C65.0236 65.5292 64.805 65.5668 64.5832 65.5668C64.2959 65.5668 63.9993 65.5072 63.6901 65.3849C63.381 65.2625 63.1405 65.0994 62.9688 64.8923L63.3466 64.4436C63.509 64.6162 63.7057 64.7448 63.9337 64.8358C64.1617 64.9268 64.3959 64.9707 64.6426 64.9707C64.8175 64.9707 64.9767 64.9362 65.1235 64.8641C65.2703 64.795 65.3421 64.6789 65.3421 64.5221L65.339 64.5315Z" fill="#333276"></path><path d="M68.048 62.4451H66.8145V61.8458H69.9123V62.4451H68.6788V65.5323H68.0448V62.4451H68.048Z" fill="#333276"></path><path d="M73.1867 65.5321H72.5527V61.8456H75.254V62.4448H73.1867V63.4865H75.1166V64.0857H73.1867V65.529V65.5321Z" fill="#333276"></path><path d="M76.6008 65.0268C76.2417 64.6628 76.0605 64.2142 76.0605 63.6871C76.0605 63.16 76.2417 62.7145 76.607 62.3474C76.9724 61.9835 77.4159 61.7983 77.9374 61.7983C78.4589 61.7983 78.9242 61.9803 79.2802 62.3411C79.6362 62.7019 79.8142 63.1506 79.8142 63.684C79.8142 64.2173 79.6331 64.666 79.2708 65.0268C78.9086 65.3876 78.4651 65.5696 77.9374 65.5696C77.4096 65.5696 76.9599 65.3876 76.6008 65.0205V65.0268ZM77.0661 62.7898C76.8381 63.0376 76.7226 63.3388 76.7226 63.6902C76.7226 64.0416 76.8413 64.3428 77.0755 64.5907C77.3097 64.8417 77.597 64.964 77.9405 64.964C78.2996 64.964 78.5932 64.8417 78.818 64.597C79.0428 64.3522 79.1553 64.051 79.1553 63.6871C79.1553 63.3232 79.0397 63.0314 78.8055 62.7835C78.5713 62.5356 78.284 62.4133 77.9374 62.4133C77.5907 62.4133 77.2941 62.5388 77.063 62.7866L77.0661 62.7898Z" fill="#333276"></path><path d="M81.0871 65.0268C80.728 64.6628 80.5469 64.2142 80.5469 63.6871C80.5469 63.16 80.728 62.7145 81.0934 62.3474C81.4587 61.9835 81.9022 61.7983 82.4237 61.7983C82.9452 61.7983 83.4105 61.9803 83.7665 62.3411C84.1225 62.7019 84.3005 63.1506 84.3005 63.684C84.3005 64.2173 84.1194 64.666 83.7571 65.0268C83.3949 65.3876 82.9515 65.5696 82.4237 65.5696C81.8959 65.5696 81.4463 65.3876 81.0871 65.0205V65.0268ZM81.5524 62.7898C81.3245 63.0376 81.2089 63.3388 81.2089 63.6902C81.2089 64.0416 81.3276 64.3428 81.5618 64.5907C81.796 64.8417 82.0833 64.964 82.4268 64.964C82.7859 64.964 83.0795 64.8417 83.3043 64.597C83.5292 64.3522 83.6416 64.051 83.6416 63.6871C83.6416 63.3232 83.5261 63.0314 83.2918 62.7835C83.0576 62.5356 82.7703 62.4133 82.4237 62.4133C82.0771 62.4133 81.7804 62.5388 81.5493 62.7866L81.5524 62.7898Z" fill="#333276"></path><path d="M86.4184 65.5322H85.3379V61.8457H86.4871C87.1179 61.8457 87.6176 61.9963 87.9923 62.2944C88.367 62.5924 88.5544 63.0411 88.5544 63.6435C88.5544 63.9635 88.4982 64.2459 88.3858 64.4906C88.2733 64.7353 88.1203 64.933 87.9205 65.0836C87.7237 65.231 87.4989 65.344 87.2459 65.4193C86.993 65.4946 86.7182 65.5322 86.4184 65.5322ZM86.4777 62.445H85.9749V64.933H86.4684C86.9149 64.933 87.2647 64.8263 87.5176 64.6098C87.7706 64.3933 87.8955 64.0702 87.8955 63.6435C87.8955 62.8466 87.4239 62.4481 86.4808 62.4481L86.4777 62.445Z" fill="#333276"></path><path d="M94.5317 65.5321H93.7229C93.5917 65.438 93.4356 65.3031 93.2607 65.1274C92.9453 65.4286 92.5581 65.5792 92.0959 65.5792C91.9241 65.5792 91.7586 65.5572 91.5962 65.5196C91.4338 65.4788 91.2808 65.4192 91.1403 65.3407C90.9998 65.2623 90.8842 65.1525 90.7999 65.0113C90.7156 64.8701 90.6719 64.7101 90.6719 64.5313C90.6719 64.387 90.7031 64.252 90.7624 64.1234C90.8218 63.9948 90.9092 63.8787 91.0279 63.7689C91.1434 63.6622 91.2496 63.5744 91.3464 63.5053C91.4401 63.4363 91.5619 63.3579 91.7149 63.27C91.4932 62.9939 91.3839 62.7335 91.3839 62.4888C91.3839 62.2441 91.4682 62.0841 91.6368 61.968C91.8055 61.8519 92.0116 61.7954 92.2489 61.7954C92.5081 61.7954 92.7173 61.8487 92.8828 61.9586C93.0452 62.0684 93.1295 62.2441 93.1295 62.4919C93.1295 62.6582 93.0702 62.8182 92.9515 62.9782C92.8329 63.1351 92.6923 63.27 92.5268 63.383C92.658 63.5963 92.9047 63.8944 93.2607 64.274C93.5043 63.9383 93.6261 63.5085 93.6261 62.9876H94.235C94.235 63.2951 94.1851 63.6089 94.0882 63.9383C93.9914 64.2677 93.8509 64.5376 93.6729 64.7478C93.9415 65.0458 94.2288 65.3094 94.5348 65.5321H94.5317ZM92.124 65.0082C92.2489 65.0082 92.3801 64.9799 92.5143 64.9266C92.6486 64.8733 92.7517 64.798 92.8266 64.707C92.4238 64.2458 92.1583 63.9289 92.0303 63.7532C91.7211 63.9446 91.5307 64.0889 91.4526 64.1862C91.3776 64.2803 91.3433 64.3775 91.3433 64.4748C91.3433 64.5407 91.3651 64.6129 91.412 64.6913C91.4682 64.8011 91.565 64.8795 91.7024 64.9297C91.8398 64.9799 91.9803 65.005 92.124 65.005V65.0082ZM92.0209 62.5798C92.0209 62.608 92.0303 62.6488 92.0459 62.699C92.0584 62.7492 92.1177 62.837 92.2177 62.9688C92.3957 62.8433 92.4862 62.7115 92.4862 62.5735C92.4862 62.5076 92.4675 62.448 92.43 62.4009C92.3894 62.357 92.3301 62.3319 92.2583 62.3319C92.1864 62.3319 92.124 62.3539 92.0865 62.3947C92.0459 62.4386 92.0241 62.4982 92.0241 62.5798H92.0209Z" fill="#333276"></path><path d="M99.5706 64.4809L99.9422 64.892C99.7798 65.1179 99.5674 65.2873 99.2989 65.4034C99.0303 65.5194 98.7493 65.5759 98.4526 65.5759C97.8842 65.5759 97.4252 65.4034 97.0817 65.0551C96.7382 64.7068 96.5664 64.2519 96.5664 63.6903C96.5664 63.1287 96.7444 62.6926 97.1004 62.3381C97.4564 61.9835 97.903 61.8047 98.4432 61.8047C98.7305 61.8047 99.0053 61.858 99.2676 61.9647C99.53 62.0714 99.7361 62.2314 99.886 62.4416L99.4675 62.8432C99.2146 62.5577 98.8867 62.4165 98.4776 62.4165C98.0966 62.4165 97.7937 62.5357 97.5688 62.771C97.344 63.0095 97.2316 63.3138 97.2316 63.6903C97.2316 64.0668 97.3502 64.3774 97.5844 64.6127C97.8187 64.848 98.1278 64.9641 98.5057 64.9641C98.946 64.9641 99.302 64.801 99.5768 64.4809H99.5706Z" fill="#333276"></path><path d="M101.079 65.0268C100.72 64.6628 100.539 64.2142 100.539 63.6871C100.539 63.16 100.72 62.7145 101.086 62.3474C101.451 61.9835 101.894 61.7983 102.416 61.7983C102.937 61.7983 103.403 61.9803 103.759 62.3411C104.115 62.7019 104.293 63.1506 104.293 63.684C104.293 64.2173 104.112 64.666 103.749 65.0268C103.387 65.3876 102.944 65.5696 102.416 65.5696C101.888 65.5696 101.438 65.3876 101.079 65.0205V65.0268ZM101.541 62.7898C101.314 63.0376 101.198 63.3388 101.198 63.6902C101.198 64.0416 101.317 64.3428 101.551 64.5907C101.785 64.8417 102.072 64.964 102.416 64.964C102.775 64.964 103.069 64.8417 103.293 64.597C103.518 64.3522 103.631 64.051 103.631 63.6871C103.631 63.3232 103.515 63.0314 103.281 62.7835C103.047 62.5356 102.759 62.4133 102.413 62.4133C102.066 62.4133 101.769 62.5388 101.538 62.7866L101.541 62.7898Z" fill="#333276"></path><path d="M105.892 65.5322H105.258V61.8457H107.959V62.445H105.892V63.4866H107.822V64.0859H105.892V65.5291V65.5322Z" fill="#333276"></path><path d="M109.72 65.5322H109.086V61.8457H111.787V62.445H109.72V63.4866H111.65V64.0859H109.72V65.5291V65.5322Z" fill="#333276"></path><path d="M115.635 65.5322H112.855V61.8457H115.582V62.445H113.489V63.3705H115.444V63.9509H113.489V64.9298H115.635V65.5291V65.5322Z" fill="#333276"></path><path d="M119.389 65.5321H116.609V61.8456H119.336V62.4448H117.243V63.3704H119.198V63.9508H117.243V64.9297H119.389V65.529V65.5321Z" fill="#333276"></path><path d="M27.2442 15.9444C27.2161 15.4455 27.1724 14.7835 27.0381 13.996C27.0194 13.905 27.0038 13.8109 26.985 13.7199C26.985 13.7199 26.8695 13.1301 26.7008 12.5403C26.4417 11.6084 24.7366 9.55024 22.1915 6.99007C22.051 6.84888 21.9073 6.70456 21.7637 6.56024C21.1766 5.97353 20.552 5.37114 19.8962 4.74678C19.3997 4.27616 18.8844 3.79927 18.3504 3.3161C17.8258 2.83606 17.2855 2.35289 16.7328 1.86659C16.1738 1.36773 15.5961 0.872008 15.0152 0.373151H15.009C14.9903 0.357464 14.9809 0.354326 14.9622 0.338639C14.8653 0.25079 14.7498 0.17549 14.6311 0.115879C14.5062 0.0625416 14.3751 0.024892 14.2314 0.00920462C14.1939 0.00292969 14.1533 0.00292969 14.1096 0.00292969C14.0722 0.00292969 14.0378 0.00292969 14.0003 0.00920462C13.8567 0.024892 13.7255 0.0625416 13.6006 0.115879C13.4788 0.172353 13.3633 0.25079 13.2696 0.338639C13.2508 0.354326 13.2415 0.357464 13.2227 0.373151C13.2165 0.373151 13.2134 0.379426 13.2071 0.382563C12.6263 0.875146 12.0579 1.374 11.4989 1.86659C10.9462 2.35603 10.406 2.8392 9.88132 3.3161C9.34732 3.79927 8.83205 4.2793 8.33552 4.74678C7.67973 5.37114 7.05517 5.97353 6.46808 6.56024L6.04025 6.99007C3.49827 9.55338 1.79633 11.6084 1.53089 12.5403C1.36226 13.1301 1.24671 13.7199 1.24671 13.7199C1.22798 13.8109 1.21236 13.905 1.19363 13.996C1.05935 14.7898 1.01563 15.455 0.987521 15.9538C0.0444278 30.8285 -0.355294 39.444 0.381693 46.1896C0.425412 46.5284 0.462886 46.861 0.506606 47.1904C0.52222 47.3599 0.54408 47.523 0.575308 47.6893C0.60029 47.8587 0.62215 48.0219 0.647133 48.1882C0.74394 48.847 0.853239 49.4839 0.984398 50.1114C1.06559 50.5287 1.15303 50.9334 1.24984 51.3382C1.3404 51.7429 1.44345 52.1508 1.54963 52.5524C1.62145 52.8191 1.69328 53.0889 1.77135 53.3556C1.7651 53.3618 1.77135 53.3618 1.77135 53.365C1.90563 53.8199 2.04616 54.2686 2.18981 54.7235C2.67072 56.2263 3.40771 58.2406 4.81922 60.4306C6.8272 63.5492 9.57841 66.1282 12.9917 68.0954V68.1048L12.9386 78.653V78.6687C12.8324 79.3683 12.7231 80.0774 12.6169 80.777C12.7231 80.8555 12.823 80.9276 12.9261 80.9998H15.3119C15.4118 80.9276 15.5149 80.8555 15.6211 80.777C15.5149 80.0774 15.4056 79.3683 15.2994 78.6687V78.653L15.2463 68.1048V68.0954C18.6596 66.1282 21.4108 63.5492 23.4188 60.4306C24.8303 58.2406 25.5641 56.2295 26.0482 54.7235C26.1918 54.2686 26.3324 53.8199 26.4666 53.365C26.4604 53.3587 26.4604 53.3556 26.4666 53.3556C26.5447 53.0889 26.6165 52.8191 26.6884 52.5524C26.7945 52.1508 26.8945 51.746 26.9881 51.3382C27.085 50.9334 27.1724 50.5256 27.2536 50.1114C27.3785 49.4839 27.4909 48.8407 27.5909 48.1882C27.6158 48.025 27.6377 47.8587 27.6627 47.6893C27.6877 47.5262 27.7064 47.3599 27.7314 47.1904C27.7751 46.861 27.8126 46.5284 27.8563 46.1896C28.5933 39.4378 28.1936 30.8254 27.2536 15.9413L27.2442 15.9444ZM3.10792 15.1757C3.11729 15.069 3.1329 14.9686 3.14539 14.8557C3.16101 14.7396 3.1735 14.6141 3.19848 14.4886C3.21409 14.3882 3.23283 14.2815 3.25157 14.1686C3.25781 14.1529 3.25781 14.1341 3.26094 14.1215C3.26094 14.1215 3.26094 14.1058 3.26718 14.087C3.27655 14.0525 3.28592 13.996 3.30466 13.9239C3.32027 13.8454 3.33901 13.7545 3.36399 13.6541C3.40146 13.4909 3.45143 13.2995 3.50452 13.1113C3.52325 13.0642 3.55136 13.0015 3.59196 12.923C3.74185 12.6657 4.02915 12.2704 4.45385 11.7527C4.51007 11.6806 4.57564 11.6021 4.64747 11.5268C4.84421 11.2884 5.07217 11.028 5.31575 10.7519C5.42505 10.6295 5.53747 10.504 5.65614 10.3754C6.00902 9.98949 6.40562 9.56907 6.84594 9.11413C7.03955 8.9102 7.23941 8.7094 7.45177 8.49605C8.17001 7.76189 8.98195 6.96811 9.88757 6.12099C10.0406 5.97981 10.1967 5.83548 10.3497 5.69116C11.0336 5.05425 11.7613 4.38911 12.5357 3.70514C12.6419 3.61415 12.7512 3.51689 12.8636 3.41963L12.9604 22.1378L3.08294 15.4895C3.0923 15.3891 3.10167 15.2855 3.11104 15.1789L3.10792 15.1757ZM2.69883 21.6452C2.69883 21.6169 2.69883 21.5887 2.70507 21.5542C2.74255 20.9047 2.78314 20.2396 2.82686 19.5619C2.85497 19.0097 2.89557 18.445 2.92679 17.8708L12.9667 24.632L12.9948 29.6991L2.63637 22.7213H2.63013C2.64886 22.3668 2.67385 22.0091 2.69883 21.6483V21.6452ZM2.06802 36.6454C2.06802 36.4132 2.07426 36.1748 2.07739 35.9395C2.07739 35.7983 2.07739 35.6602 2.08363 35.5191C2.08988 35.2492 2.093 34.9669 2.10237 34.6876C2.10237 34.6186 2.10237 34.5464 2.10861 34.4743C2.11486 34.2233 2.11798 33.9723 2.12735 33.715C2.13672 33.3605 2.14609 33.0028 2.1617 32.6357C2.17732 32.1024 2.19605 31.5564 2.21791 31.0011L2.32409 28.5884C2.34907 28.0707 2.37093 27.5405 2.40216 26.9977C2.4209 26.6934 2.43651 26.3828 2.449 26.069C2.46462 25.7553 2.48335 25.4352 2.50209 25.1152L13.0104 32.1902L13.0198 34.4115C13.0291 36.0493 13.0354 37.6902 13.0447 39.3279L13.0791 45.4303L2.05865 38.0196C2.05865 37.5741 2.06489 37.116 2.06802 36.6454ZM13.0885 48.3231L12.9979 65.6827C10.3373 63.9696 8.17001 61.8299 6.54302 59.3105C5.82477 58.1998 5.30639 57.1582 4.90666 56.1918C4.8161 55.9848 4.73803 55.7808 4.65996 55.5832C4.58189 55.3855 4.51007 55.191 4.44449 54.9996C4.33519 54.689 4.23213 54.3909 4.14157 54.1054V54.096C4.00105 53.6662 3.86676 53.2363 3.7481 52.8002C3.72311 52.7281 3.70438 52.6496 3.68564 52.5775C3.47329 51.8119 3.2828 51.0495 3.11729 50.2652C2.94865 49.4808 2.805 48.6839 2.68009 47.8556C2.59265 47.3097 2.52083 46.7418 2.45837 46.1676C2.38967 45.5935 2.33346 45.0068 2.28662 44.3981C2.26163 44.1283 2.2429 43.8522 2.22416 43.5698C2.21791 43.482 2.21479 43.3972 2.20854 43.3031C2.15546 42.4623 2.11798 41.5807 2.093 40.6582C2.093 40.6143 2.08675 40.5704 2.08675 40.5233L13.0323 47.8932C13.051 47.9089 13.0666 47.9183 13.0853 47.9277H13.0916V48.3231H13.0885ZM15.2214 32.1902C15.237 28.8363 15.2557 25.4854 15.2713 22.1315L15.2776 21.0993C15.2776 20.9894 15.2776 20.8796 15.2776 20.7667L15.3681 3.41022C15.4774 3.50748 15.5898 3.60474 15.696 3.69573C16.4705 4.38283 17.1981 5.04484 17.882 5.68175C18.0413 5.82293 18.1943 5.96726 18.3442 6.11158C19.2498 6.95869 20.0617 7.75247 20.78 8.48664C20.9923 8.69999 21.1953 8.90392 21.3858 9.10472C21.823 9.55966 22.2227 9.98008 22.5756 10.366C22.6974 10.4978 22.8067 10.6233 22.916 10.7425C23.1721 11.0217 23.3969 11.2853 23.5843 11.5174C23.6561 11.5959 23.7186 11.6712 23.7779 11.7433C24.2057 12.261 24.4899 12.6532 24.6398 12.9136C24.6773 12.992 24.7085 13.0548 24.7272 13.1019C24.7803 13.2901 24.8272 13.4784 24.8678 13.6446C24.8927 13.745 24.9115 13.8392 24.9271 13.9145C24.9333 13.9396 24.9427 13.9615 24.9427 13.9835C24.9521 14.0211 24.9583 14.0525 24.9614 14.0713C24.9614 14.087 24.9677 14.0902 24.9677 14.0996C24.9739 14.1058 24.9739 14.109 24.9739 14.109C24.9802 14.1278 24.9802 14.1435 24.9833 14.1623C25.002 14.2721 25.0208 14.3788 25.0364 14.4823C25.0614 14.6078 25.0739 14.7302 25.0895 14.8494C25.1051 14.9592 25.1176 15.0628 25.1269 15.1694C25.1363 15.2761 25.1457 15.3765 25.1551 15.4801C25.205 16.2738 25.2581 17.0708 25.3081 17.8645C25.3424 18.4387 25.3768 19.0066 25.408 19.5556C25.4517 20.2333 25.4892 20.8985 25.5298 21.5479C25.536 21.5762 25.536 21.6107 25.536 21.6389C25.561 22.0029 25.5829 22.3605 25.6047 22.7119H25.5985C25.6422 23.512 25.6859 24.312 25.7297 25.1121C25.7484 25.429 25.764 25.749 25.7827 26.0627C25.7984 26.3765 25.8108 26.6871 25.8296 26.9914C25.8546 27.5342 25.8827 28.0613 25.9077 28.5821L15.2089 35.7889L15.2245 32.1871L15.2214 32.1902ZM26.1637 39.215C26.1606 39.6542 26.1512 40.0904 26.145 40.5233C26.145 40.5672 26.1387 40.6143 26.1387 40.6582C26.1138 41.5807 26.0763 42.4623 26.0232 43.3031C26.017 43.3941 26.0138 43.482 26.0076 43.5698C25.9888 43.849 25.9701 44.1251 25.9451 44.3981C25.8983 45.0068 25.8389 45.5935 25.7734 46.1676C25.7109 46.7418 25.6391 47.3097 25.5516 47.8556C25.4267 48.6839 25.2831 49.4808 25.1145 50.2652C24.9521 51.0495 24.7585 51.8119 24.5461 52.5775C24.5211 52.6496 24.5024 52.7218 24.4836 52.8002C24.3619 53.2363 24.2276 53.6662 24.0902 54.096V54.1054C23.9996 54.3909 23.8966 54.689 23.7873 54.9996C23.7186 55.1941 23.6467 55.3855 23.5718 55.5832C23.4937 55.7808 23.4188 55.9848 23.3251 56.1918C23.2251 56.4334 23.119 56.6813 23.0034 56.9323C22.8879 57.1833 22.7661 57.4405 22.6287 57.6978C22.56 57.8327 22.4944 57.9645 22.4163 58.0994C22.2009 58.4916 21.9604 58.8963 21.6887 59.3136C20.0617 61.833 17.8945 63.9759 15.2338 65.6858L15.1433 48.3262V47.9309H15.1495C15.1526 47.0995 15.1558 46.268 15.1589 45.4366L15.1964 38.2957C15.1964 38.2957 15.2026 38.2894 15.2057 38.2894L26.017 31.0074C26.0419 31.5627 26.0607 32.1086 26.0732 32.642C26.0888 33.0091 26.0981 33.3668 26.1075 33.7213C26.1169 33.9786 26.1231 34.2296 26.1263 34.4806C26.1325 34.5527 26.1325 34.6249 26.1325 34.6939C26.1419 34.9731 26.1481 35.2555 26.1512 35.5253C26.1575 35.6665 26.1575 35.8046 26.1575 35.9458C26.1637 36.1842 26.1668 36.4195 26.1668 36.6517C26.17 36.9811 26.1731 37.298 26.1731 37.618C26.1731 37.6651 26.1731 37.7122 26.1731 37.7592C26.1731 37.8471 26.1731 37.938 26.1731 38.0259H26.17C26.17 38.4244 26.17 38.8197 26.1637 39.2213V39.215Z" fill="#333276"></path><path d="M52.1233 51.8153V52.6216H40.2129V51.8153L43.1796 48.9539V27.3022L40.2129 24.4408V23.6345H56.1924L61.1826 22.9286L61.9259 29.9189L60.9016 29.9377L56.2299 25.6268H48.7507V36.9688H54.1844L56.4703 33.5646H57.3509V42.3464H56.4703L54.1844 38.9422H48.7507V48.9539L52.1202 51.8153H52.1233Z" fill="#333276"></path><path d="M64.4145 49.6784V36.4634L61.9693 34.126V33.3197L69.208 31.8294L69.8701 32.4349L69.6296 35.4155V49.6753L72.3777 51.8119V52.6182H61.6914V51.8119L64.4176 49.6753L64.4145 49.6784ZM64.2428 25.2878C64.3895 24.9395 64.5956 24.6352 64.8642 24.381C65.1328 24.1269 65.4482 23.9261 65.8167 23.7881C66.1851 23.6469 66.5817 23.5747 67.0096 23.5747C67.4374 23.5747 67.8527 23.65 68.2212 23.7975C68.5897 23.9449 68.9114 24.1426 69.1831 24.3904C69.4579 24.6383 69.6671 24.9364 69.817 25.2878C69.9638 25.636 70.0356 26.0125 70.0356 26.4173C70.0356 26.822 69.9606 27.2173 69.817 27.5656C69.6702 27.9138 69.4579 28.2182 69.1831 28.4723C68.9114 28.7264 68.5897 28.921 68.2212 29.0559C67.8527 29.1908 67.4499 29.2567 67.0096 29.2567C66.5693 29.2567 66.1851 29.1908 65.8167 29.0559C65.4482 28.921 65.1328 28.7264 64.8642 28.4723C64.5956 28.2182 64.3895 27.9138 64.2428 27.5656C64.096 27.2173 64.021 26.8345 64.021 26.4173C64.021 26 64.096 25.6392 64.2428 25.2878Z" fill="#333276"></path><path d="M83.727 51.7965V52.6216H73.1406V51.7965L75.8668 49.6818H75.8856V36.4668L73.4217 34.1294V33.3231L80.3793 31.792L80.9227 32.2971L80.6822 35.3593H81.082C81.5504 34.8887 82.0532 34.44 82.5965 34.0102C83.1399 33.5803 83.7207 33.2039 84.3422 32.8807C84.9636 32.5575 85.6163 32.3003 86.3064 32.1057C86.9935 31.9112 87.7117 31.814 88.4612 31.814C89.3418 31.814 90.1631 31.9614 90.9189 32.2563C91.6715 32.5513 92.3241 32.9591 92.8737 33.4831C93.4202 34.007 93.8481 34.6345 94.1572 35.3656C94.4633 36.0997 94.6163 36.9061 94.6163 37.794V49.6787L97.3644 51.7933V52.6185H86.7593V51.7933L89.4261 49.6787V38.8231C89.4261 38.1924 89.345 37.6151 89.1857 37.0912C89.0264 36.5672 88.7985 36.1217 88.5049 35.7515C88.2114 35.3813 87.8585 35.0926 87.4525 34.8855C87.0466 34.6785 86.5937 34.5749 86.1003 34.5749C85.6069 34.5749 85.1385 34.6722 84.6576 34.8667C84.1767 35.0612 83.7145 35.306 83.2742 35.6009C82.8339 35.8958 82.4248 36.219 82.0532 36.5672C81.6784 36.9155 81.3568 37.2449 81.0913 37.5524V49.6787L83.7364 51.7933L83.727 51.7965Z" fill="#333276"></path><path d="M115.455 48.5335C114.987 49.1642 114.453 49.7603 113.85 50.3156C113.247 50.8741 112.579 51.3573 111.845 51.7651C111.111 52.1761 110.306 52.4993 109.431 52.7409C108.557 52.9825 107.608 53.1048 106.593 53.1048C105.19 53.1048 103.907 52.8632 102.742 52.3801C101.577 51.8969 100.581 51.2161 99.7442 50.3344C98.9073 49.4559 98.2609 48.3892 97.7987 47.1405C97.3366 45.8918 97.1055 44.5019 97.1055 42.9708C97.1055 41.2923 97.3771 39.7643 97.9268 38.387C98.4764 37.0096 99.2321 35.8362 100.203 34.8636C101.171 33.891 102.324 33.138 103.66 32.6077C104.997 32.0775 106.455 31.814 108.032 31.814C108.594 31.814 109.181 31.8485 109.797 31.9144C110.412 31.9834 111.011 32.0681 111.592 32.1779C112.173 32.2846 112.723 32.4069 113.235 32.5419C113.747 32.6768 114.187 32.818 114.546 32.9654L113.544 38.7666H112.482C111.92 37.7595 111.367 36.8214 110.818 35.946C110.268 35.0738 109.775 34.3334 109.334 33.731C109.253 33.7059 109.085 33.6713 108.832 33.6306C108.579 33.5898 108.338 33.5709 108.11 33.5709C107.32 33.5709 106.593 33.7435 105.924 34.0855C105.256 34.4275 104.681 34.9295 104.201 35.5852C103.72 36.2441 103.345 37.0441 103.076 37.9822C102.808 38.9203 102.677 39.9965 102.677 41.2044C102.677 42.588 102.817 43.8305 103.098 44.9317C103.379 46.033 103.785 46.9679 104.322 47.7429C104.856 48.5147 105.509 49.1046 106.277 49.5156C107.045 49.9266 107.91 50.1305 108.872 50.1305C109.447 50.1305 109.996 50.0458 110.515 49.8795C111.036 49.7132 111.527 49.4905 111.989 49.2144C112.448 48.9383 112.873 48.6339 113.263 48.2982C113.65 47.9625 114.003 47.6331 114.325 47.3099L115.449 48.5398L115.455 48.5335Z" fill="#333276"></path><path d="M125.366 51.8309V52.6372H114.779V51.8309L117.506 49.6943V25.4636L115.282 23.691V22.7246L122.34 21.2939L123.002 21.9371L122.721 25.6425V35.3718C123.189 34.9011 123.692 34.4525 124.235 34.0227C124.779 33.5928 125.35 33.2163 125.959 32.8932C126.568 32.57 127.218 32.3127 127.905 32.1182C128.592 31.9237 129.304 31.8264 130.041 31.8264C130.937 31.8264 131.764 31.9739 132.526 32.2688C133.288 32.5637 133.944 32.9716 134.491 33.4956C135.037 34.0195 135.471 34.647 135.783 35.378C136.099 36.1122 136.255 36.9185 136.255 37.8064V49.6912L139 51.8278V52.6341H128.395V51.8278L131.062 49.6912V38.8355C131.062 38.2049 130.977 37.6307 130.812 37.1131C130.646 36.5985 130.415 36.1499 130.122 35.7734C129.828 35.3969 129.475 35.1051 129.069 34.8949C128.663 34.6878 128.211 34.5843 127.717 34.5843C127.224 34.5843 126.718 34.6784 126.243 34.8666C125.769 35.0549 125.319 35.2965 124.891 35.5914C124.463 35.8863 124.07 36.2095 123.707 36.5577C123.345 36.906 123.017 37.2354 122.724 37.546V49.6912L125.369 51.8278L125.366 51.8309Z" fill="#333276"></path></g><defs><clipPath id="clip0_17_3047"><rect width="139" height="81" fill="white"></rect></clipPath></defs></svg> 